<svg width="23.500000" height="5.166504" viewBox="0 0 23.5 5.1665" fill="none" xmlns="http://www.w3.org/2000/svg" xmlns:xlink="http://www.w3.org/1999/xlink">
	<desc>
			Created with Pixso.
	</desc>
	<defs/>
	<path id="Vector" d="M11.75 0.75C10.7383 0.75 9.91699 1.5708 9.91699 2.58301C9.91699 3.5957 10.7383 4.4165 11.75 4.4165C12.7627 4.4165 13.584 3.5957 13.584 2.58301C13.584 1.5708 12.7627 0.75 11.75 0.75Z" stroke="#FFCA42" stroke-opacity="1.000000" stroke-width="1.500000"/>
	<path id="Vector" d="M20.916 0.75C19.9043 0.75 19.083 1.5708 19.083 2.58301C19.083 3.5957 19.9043 4.4165 20.916 4.4165C21.9287 4.4165 22.75 3.5957 22.75 2.58301C22.75 1.5708 21.9287 0.75 20.916 0.75Z" stroke="#FFCA42" stroke-opacity="1.000000" stroke-width="1.500000"/>
	<path id="Vector" d="M2.58301 0.75C1.57129 0.75 0.75 1.5708 0.75 2.58301C0.75 3.5957 1.57129 4.4165 2.58301 4.4165C3.5957 4.4165 4.41699 3.5957 4.41699 2.58301C4.41699 1.5708 3.5957 0.75 2.58301 0.75Z" stroke="#FFCA42" stroke-opacity="1.000000" stroke-width="1.500000"/>
</svg>
