<svg width="24.500000" height="28.000000" viewBox="0 0 24.5 28" fill="none" xmlns="http://www.w3.org/2000/svg" xmlns:xlink="http://www.w3.org/1999/xlink">
	<desc>
			Created with Pixso.
	</desc>
	<defs/>
	<path id="Vector" d="M3.56348 22.3999L24.5 22.3999L24.5 0L3.50586 0C1.57227 0.00634766 0.00683594 1.5874 0 3.53906L0 24.1646L0.000976562 24.1646C0.000976562 24.1733 0 24.1821 0 24.1909C0 26.2559 1.60547 28 3.50586 28L24.5 28L24.5 26.1333L3.50586 26.1333C2.63867 26.1333 1.84863 25.2075 1.84863 24.1909C1.84863 23.2202 2.63477 22.3999 3.56348 22.3999ZM5.54688 1.88574L11.0947 1.88574L11.0947 11.9673L8.29785 9.48828L5.54688 11.9526L5.54688 1.88574ZM1.84863 3.55371C1.8457 2.62598 2.58691 1.87207 3.50586 1.8667L3.69824 1.8667L5.54688 1.8667L3.69824 1.8667L3.69824 14.4668L5.52637 14.4668L8.30469 11.978L11.1113 14.4668L12.9434 14.4668L12.9434 1.8667L22.6514 1.8667L22.6514 20.5332L5.55176 20.5332L3.70312 20.5332L3.56348 20.5332C2.96191 20.5332 2.37109 20.6919 1.84961 20.9932L1.84961 3.55371L1.84863 3.55371Z" fill="#FFCA42" fill-opacity="1.000000" fill-rule="nonzero"/>
</svg>
