<svg width="24.000000" height="23.000000" viewBox="0 0 24 23" fill="none" xmlns="http://www.w3.org/2000/svg" xmlns:xlink="http://www.w3.org/1999/xlink">
	<desc>
			Created with Pixso.
	</desc>
	<defs/>
	<path id="Vector" d="M9 22C8.44727 22 8 21.5522 8 21C8 20.4478 8.44727 20 9 20C9.55273 20 10 20.4478 10 21C10 21.5522 9.55273 22 9 22ZM20 22C19.4473 22 19 21.5522 19 21C19 20.4478 19.4473 20 20 20C20.5527 20 21 20.4478 21 21C21 21.5522 20.5527 22 20 22ZM1 1L5 1L7.67969 14.3901C7.77148 14.8506 8.02148 15.2642 8.3877 15.5581C8.75293 15.8525 9.21094 16.0088 9.67969 16L19.4004 16C19.8691 16.0088 20.3271 15.8525 20.6924 15.5581C21.0576 15.2642 21.3086 14.8506 21.4004 14.3901L23 6L6 6" stroke="#FFFFFF" stroke-opacity="1.000000" stroke-width="2.000000" stroke-linejoin="round" stroke-linecap="round"/>
</svg>
