<svg width="15" height="15" viewBox="0 0 15 15" fill="none" xmlns="http://www.w3.org/2000/svg">
<path d="M3.375 14.5H0.46875V5.15625H3.375V14.5ZM3.125 3.375C2.79167 3.70833 2.39583 3.875 1.9375 3.875C1.47917 3.875 1.08333 3.70833 0.75 3.375C0.416667 3.04167 0.25 2.64583 0.25 2.1875C0.25 1.72917 0.416667 1.33333 0.75 1C1.08333 0.666667 1.47917 0.5 1.9375 0.5C2.39583 0.5 2.79167 0.666667 3.125 1C3.45833 1.33333 3.625 1.72917 3.625 2.1875C3.625 2.64583 3.45833 3.04167 3.125 3.375ZM14.25 14.5H11.3438V9.9375C11.3438 9.58333 11.3333 9.30208 11.3125 9.09375C11.2917 8.86458 11.2396 8.61458 11.1562 8.34375C11.0729 8.05208 10.9167 7.83333 10.6875 7.6875C10.4792 7.54167 10.1979 7.46875 9.84375 7.46875C9.15625 7.46875 8.6875 7.6875 8.4375 8.125C8.20833 8.5625 8.09375 9.14583 8.09375 9.875V14.5H5.1875V5.15625H8V6.4375H8.03125C8.23958 6.02083 8.58333 5.66667 9.0625 5.375C9.54167 5.0625 10.1146 4.90625 10.7812 4.90625C11.4896 4.90625 12.0729 5.02083 12.5312 5.25C13.0104 5.45833 13.3646 5.78125 13.5938 6.21875C13.8438 6.63542 14.0104 7.09375 14.0938 7.59375C14.1979 8.09375 14.25 8.6875 14.25 9.375V14.5Z" fill="#1B3764"/>
</svg>
