<svg width="15" height="15" fill="none" xmlns="http://www.w3.org/2000/svg"><path d="M3.375 14.5H.469V5.156h2.906V14.5zm-.25-11.125c-.333.333-.73.5-1.188.5-.458 0-.854-.167-1.187-.5-.333-.333-.5-.73-.5-1.188 0-.458.167-.854.5-1.187.333-.333.73-.5 1.188-.5.458 0 .854.167 1.187.5.333.333.5.73.5 1.188 0 .458-.167.854-.5 1.187zM14.25 14.5h-2.906V9.937c0-.354-.01-.635-.031-.843a3.661 3.661 0 00-.157-.75 1.102 1.102 0 00-.469-.656c-.208-.146-.49-.22-.843-.22-.688 0-1.156.22-1.406.657-.23.438-.344 1.02-.344 1.75V14.5H5.188V5.156H8v1.282h.031c.209-.417.552-.771 1.031-1.063.48-.313 1.053-.469 1.72-.469.708 0 1.29.115 1.75.344.478.208.833.531 1.062.969.25.416.416.875.5 1.375.104.5.156 1.093.156 1.781V14.5z" fill="#1B3764"/></svg>