<svg width="55" height="55" fill="none" xmlns="http://www.w3.org/2000/svg"><path stroke="#FFCA42" d="M.5.5h54v54H.5z"/><path d="M22.64 33V22.488h-3.269V33h3.27zm-1.652-11.918c1.055 0 1.899-.879 1.899-1.934 0-1.02-.844-1.863-1.899-1.863-1.02 0-1.863.844-1.863 1.863 0 1.055.844 1.934 1.863 1.934zM34.84 33h.035v-5.766c0-2.812-.633-4.992-3.938-4.992-1.582 0-2.636.88-3.093 1.688h-.035v-1.442h-3.13V33h3.27v-5.203c0-1.371.246-2.672 1.934-2.672 1.687 0 1.723 1.547 1.723 2.777V33h3.234z" fill="#fff"/></svg>