<svg width="24.5" height="28" fill="none" xmlns="http://www.w3.org/2000/svg"><path d="M3.563 22.4H24.5V0H3.506C1.572.006.006 1.587 0 3.54v20.625h.001L0 24.19C0 26.256 1.605 28 3.506 28H24.5v-1.867H3.506c-.867 0-1.657-.925-1.657-1.942 0-.97.786-1.791 1.714-1.791zM5.547 1.886h5.548v10.081L8.298 9.488l-2.751 2.465V1.886zM1.849 3.554a1.674 1.674 0 011.657-1.687h2.041-1.849v12.6h1.828l2.779-2.489 2.806 2.489h1.832v-12.6h9.708v18.666H3.563c-.601 0-1.192.159-1.713.46V3.553h-.001z" fill="#FFCA42"/></svg>