<svg width="17" height="13" fill="none" xmlns="http://www.w3.org/2000/svg"><path d="M14.594 3.25c.02.083.031.219.031.406A9.324 9.324 0 0114 6.97a10.488 10.488 0 01-1.781 3c-.75.896-1.73 1.625-2.938 2.187-1.208.563-2.541.844-4 .844-1.833 0-3.51-.49-5.031-1.469.23.021.49.031.781.031a6.502 6.502 0 004.094-1.406 3.17 3.17 0 01-1.938-.625 3.39 3.39 0 01-1.124-1.625c.208.021.406.032.593.032.292 0 .584-.032.875-.094a3.306 3.306 0 01-1.875-1.157 3.146 3.146 0 01-.75-2.062v-.063c.459.271.948.417 1.469.438C1.395 4.333.906 3.417.906 2.25c0-.583.156-1.135.469-1.656a9.098 9.098 0 006.75 3.437 4.52 4.52 0 01-.063-.75c0-.896.313-1.666.938-2.312C9.646.323 10.417 0 11.313 0c.958 0 1.76.344 2.406 1.031A6.675 6.675 0 0015.813.25c-.25.77-.73 1.375-1.438 1.813a7.049 7.049 0 001.875-.532 7.213 7.213 0 01-1.656 1.719z" fill="#1B3764"/></svg>