<svg width="55" height="55" fill="none" xmlns="http://www.w3.org/2000/svg"><path stroke="#FFCA42" d="M.5.5h54v54H.5z"/><path d="M35.137 23.594a7.819 7.819 0 001.828-1.899 6.916 6.916 0 01-2.11.563 3.607 3.607 0 001.618-2.04 7.8 7.8 0 01-2.32.915 3.691 3.691 0 00-2.708-1.16 3.69 3.69 0 00-3.691 3.691c0 .281.035.563.105.844a10.71 10.71 0 01-7.629-3.867 3.591 3.591 0 00-.492 1.863c0 1.265.633 2.39 1.653 3.058-.598-.035-1.196-.175-1.688-.457v.036a3.696 3.696 0 002.953 3.62 4.083 4.083 0 01-.949.141c-.246 0-.457-.035-.703-.07.457 1.477 1.828 2.531 3.445 2.566a7.421 7.421 0 01-4.57 1.582c-.317 0-.598-.035-.879-.07 1.617 1.055 3.55 1.653 5.66 1.653 6.785 0 10.477-5.59 10.477-10.477v-.492z" fill="#fff"/></svg>